# xmcd CD database file
#
# Track frame offsets:
#	150
#	15317
#	33433
#	50084
#	70391
#	83799
#	97579
#	112916
#	128277
#	141487
#	158092
#	172792
#	188349
#
# Disc length: 2740 seconds
#
# Revision: 0
# Processed by: cddbd v1.5.2PL0 Copyright (c) Steve Scherf et al.
# Submitted via: CDex 1.70beta2
#
DISCID=910ab20d
DTITLE=Brett Kissel, 1990- - We Were That Song
DYEAR=2017
DGENRE=Country Can 2011-2020
TTITLE0=Brett Kissel - We Were That Song
TTITLE1=Brett Kissel - Anthem
TTITLE2=Brett Kissel - Guitars and Gasoline
TTITLE3=Brett Kissel - Nights in the Sun (feat. Grandpa Bear)
TTITLE4=Brett Kissel - Between You and Me
TTITLE5=Brett Kissel - That's How the World Ends
TTITLE6=Brett Kissel - Slow Me Down
TTITLE7=Brett Kissel - Cecilia
TTITLE8=Brett Kissel - Shootin' It
TTITLE9=Brett Kissel - Damn! (feat. Dave Mustaine)
TTITLE10=Brett Kissel - Drink, Cuss, or Fish
TTITLE11=Brett Kissel - God Made Daughters
TTITLE12=Brett Kissel - Burgers and Fries (feat. Charley Pride)
EXTD=YEAR: 2017
EXTT0=
EXTT1=
EXTT2=
EXTT3=
EXTT4=
EXTT5=
EXTT6=
EXTT7=
EXTT8=
EXTT9=
EXTT10=
EXTT11=
EXTT12=
PLAYORDER=
